<svg xmlns="http://www.w3.org/2000/svg" width="128" height="128" viewBox="0 0 128 128" role="img" aria-label="瞳宇">
  <defs>
    <linearGradient id="g" x1="20" x2="108" y1="20" y2="108" gradientUnits="userSpaceOnUse">
      <stop offset="0" stop-color="#1677ff" />
      <stop offset="1" stop-color="#13c2c2" />
    </linearGradient>
  </defs>
  <rect x="8" y="8" width="112" height="112" rx="28" fill="url(#g)" />
  <path fill="#fff" d="M64 32c20.8 0 39.1 11.9 48.2 30.2a3.8 3.8 0 0 1 0 3.5C103 84 84.8 96 64 96S24.9 84 15.8 65.7a3.8 3.8 0 0 1 0-3.5A53.4 53.4 0 0 1 64 32Zm0 12.5A21.5 21.5 0 1 0 64 87a21.5 21.5 0 0 0 0-43Zm0 9.7a11.8 11.8 0 1 1 0 23.6 11.8 11.8 0 0 1 0-23.6Z"/>
  <circle cx="71" cy="58" r="4" fill="#fff" opacity=".92" />
</svg>